<svg xmlns="http://www.w3.org/2000/svg" version="1.1" xmlns:xlink="http://www.w3.org/1999/xlink" xmlns:svgjs="http://svgjs.dev/svgjs" width="1500" height="1500" viewBox="0 0 1500 1500"><g transform="matrix(1,0,0,1,-0.7499999999998863,-0.7499999999998863)"><svg viewBox="0 0 280 280" data-background-color="#0b0b0a" preserveAspectRatio="xMidYMid meet" height="1500" width="1500" xmlns="http://www.w3.org/2000/svg" xmlns:xlink="http://www.w3.org/1999/xlink"><g id="tight-bounds" transform="matrix(1,0,0,1,0.13999999999998636,0.13999999999998636)"><svg viewBox="0 0 279.72 279.72" height="279.72" width="279.72"><g><svg viewBox="0 0 279.72 279.72" height="279.72" width="279.72"><g><svg viewBox="0 0 279.72 279.72" height="279.72" width="279.72"><g id="textblocktransform"><svg viewBox="0 0 279.72 279.72" height="279.72" width="279.72" id="textblock"><g><svg viewBox="0 0 279.72 279.72" height="279.72" width="279.72"><g transform="matrix(1,0,0,1,76.56644551171956,73.92936372216631)"><svg viewBox="0 0 126.58710897656088 131.8612725556674" height="131.8612725556674" width="126.58710897656088"><g id="icon-0"><svg xmlns="http://www.w3.org/2000/svg" xmlns:xlink="http://www.w3.org/1999/xlink" version="1.1" x="0" y="0" viewBox="5.011456180001682 5.181049961377741 86.20238769632894 89.79395003862227" enable-background="new 0 0 100 100" xml:space="preserve" height="131.8612725556674" width="126.58710897656088" class="icon-xg-0" data-fill-palette-color="accent" id="xg-0"><path d="M62.1 9.5c1-0.8 2.3-0.9 2.3-0.9l0.4 0.1 0 0 10.6 1.5c0 0 4 0 6.3 4.1l-53 67c0 0-14.2-3.4-17.4-6.1 0 0-0.1-0.1-0.3-0.4-0.1-0.1-0.1-0.2-0.2-0.4 0-0.1-0.1-0.2-0.1-0.3 0-0.1 0-0.1 0-0.2 0-0.2 0-0.4 0-0.6 0-0.1 0-0.1 0-0.1 0-0.3 0-0.6 0.1-0.9 0-0.1 0-0.2 0.1-0.2 0.1-0.3 0.2-0.6 0.3-1 0-0.1 0.1-0.2 0.1-0.4 0.2-0.5 0.4-1 0.6-1.5C16.4 59.2 49.6 18.7 62.1 9.5zM90.9 16.3l-5.5 7 0.5 0.7L33.4 90.4l-0.6-0.6-3.6 4.5c-0.4 0.6-1.4 0.8-2 0.6L10 89.1c-0.7-0.2-1.6-0.9-2-1.5l-2.7-3.8c-0.4-0.6-0.4-1.5 0.1-2.1l4.4-5.5c0.1 0.1 0.2 0.2 0.3 0.3 3.5 2.9 16.6 6.1 18.1 6.5l1.1 0.3 0.7-0.9 53-67 0.8-1-0.6-1.1c-2.6-4.5-6.8-4.9-7.7-5l-9.4-1.4 0.7-0.9c0.4-0.6 1.4-0.9 2.1-0.8l17.2 2.8c0.7 0.1 1.6 0.7 2 1.3l2.9 4.6C91.3 14.7 91.3 15.7 90.9 16.3zM16.9 81.4c-1-0.4-2.2 0-2.5 0.9-0.4 0.9 0.2 1.9 1.3 2.4 1 0.4 2.2 0 2.5-0.9C18.5 82.9 17.9 81.8 16.9 81.4zM39.6 79.6L37 75.3l-3.6 4.6 2.7 4.2L39.6 79.6zM44.5 73.3L41.9 69l-3.6 4.6 2.7 4.2L44.5 73.3zM49.5 67.1l-2.6-4.3-3.6 4.6 2.7 4.2L49.5 67.1zM54.4 60.8l-2.6-4.3-3.6 4.6 2.7 4.2L54.4 60.8zM59.4 54.6l-2.7-4.3-3.6 4.6 2.7 4.2L59.4 54.6zM64.3 48.3L61.7 44l-3.6 4.6 2.7 4.2L64.3 48.3zM69.3 42.1l-2.6-4.3L63 42.4l2.7 4.2L69.3 42.1zM74.2 35.8l-2.6-4.3-3.6 4.6 2.7 4.2L74.2 35.8zM79.2 29.6l-2.6-4.3-3.6 4.6 2.7 4.2L79.2 29.6zM84.1 23.3l-2.6-4.3-3.6 4.6 2.7 4.2L84.1 23.3z" fill="#ea8609" data-fill-palette-color="accent"></path></svg></g></svg></g><g id="text-0"><path d="M24.729 108.846l-2.479-1.009 1.703-4.182-14.315-5.828-1.703 4.182-2.478-1.009 4.822-11.846 2.479 1.009-1.687 4.144 6.093 2.481 5.627-13.823-6.093-2.48-1.691 4.153-2.479-1.009 4.823-11.846 2.479 1.01-1.703 4.181 14.315 5.828 1.703-4.182 2.478 1.01-4.822 11.845-2.479-1.009 1.691-4.154-6.282-2.557-5.628 13.823 6.283 2.557 1.687-4.144 2.478 1.009zM31.969 81.308l-12.309-5.011 1.695-4.163-2.763-1.125 0.251-0.615 3.359 1.368-1.695 4.163 11.713 4.768zM16.687 95.304l-4.087-1.664 1.683-4.135-2.762-1.125 0.254-0.624 3.358 1.367-1.683 4.135 3.491 1.421zM17.059 84.393l-0.596-0.243 1.048-2.574 0.596 0.243zM9.991 101.754l-0.596-0.243 1.652-2.349v0zM24.909 98.651l-4.267-1.737 4.923-12.092 0.586 0.239-4.668 11.467 3.68 1.498zM33.266 90.991l4.896-12.026-2.696-1.097 0.242-0.596 3.283 1.336-5.138 12.622zM26.198 108.352l4.896-12.025-2.696-1.098 0.25-0.615 3.283 1.337-5.146 12.64z" fill="#ffffff" data-fill-palette-color="primary"></path><path d="M34.531 68.657v0c-0.802-0.655-1.461-1.474-1.977-2.457-0.521-0.988-0.829-2.07-0.924-3.246-0.095-1.176 0.056-2.416 0.452-3.719 0.401-1.299 1.118-2.582 2.152-3.848v0c0.332-0.406 0.719-0.816 1.16-1.228 0.433-0.412 0.907-0.794 1.424-1.146 0.512-0.347 1.065-0.647 1.658-0.901 0.584-0.253 1.189-0.428 1.813-0.525v0l-1.385-1.13 4.541-5.564 2.2 1.796-2.319 2.841 8.357 6.821 2.319-2.841 1.939 1.583-4.541 5.563-1.686-1.376c0.062 0.613 0.048 1.239-0.042 1.878-0.09 0.638-0.244 1.269-0.462 1.89-0.213 0.617-0.486 1.221-0.819 1.811-0.328 0.585-0.701 1.133-1.119 1.645v0c-1.012 1.24-2.08 2.188-3.204 2.844-1.12 0.651-2.237 1.044-3.351 1.181-1.113 0.146-2.2 0.051-3.26-0.287-1.059-0.328-2.035-0.857-2.926-1.585zM51.655 54.786l-6.663-5.439 2.325-2.849-2.121-1.731 0.427-0.522 2.611 2.131-2.325 2.849 6.172 5.038zM36.721 65.764v0c0.718 0.586 1.47 0.989 2.257 1.209 0.786 0.211 1.561 0.263 2.324 0.157 0.768-0.112 1.511-0.376 2.229-0.792 0.717-0.426 1.359-0.987 1.928-1.683v0c0.332-0.406 0.628-0.85 0.889-1.332 0.26-0.491 0.465-1.001 0.615-1.528 0.154-0.533 0.247-1.078 0.277-1.633 0.031-0.555-0.027-1.103-0.173-1.645-0.137-0.543-0.37-1.071-0.698-1.585-0.324-0.519-0.762-1.005-1.316-1.456v0c-0.612-0.5-1.309-0.831-2.09-0.994-0.781-0.163-1.574-0.172-2.377-0.028-0.809 0.14-1.592 0.432-2.351 0.876-0.764 0.44-1.434 1.014-2.011 1.721v0c-0.577 0.707-1.005 1.452-1.284 2.236-0.283 0.789-0.408 1.566-0.374 2.332 0.034 0.766 0.228 1.509 0.582 2.228 0.358 0.714 0.882 1.353 1.573 1.917zM37.514 64.921v0c-0.543-0.444-0.958-0.953-1.244-1.529-0.285-0.567-0.445-1.167-0.48-1.803-0.04-0.63 0.05-1.273 0.27-1.929 0.224-0.652 0.58-1.276 1.066-1.872v0c0.366-0.448 0.748-0.814 1.145-1.096 0.397-0.282 0.775-0.497 1.133-0.645 0.362-0.153 0.688-0.256 0.978-0.309 0.291-0.044 0.522-0.058 0.693-0.041v0c-0.642 0.259-1.239 0.571-1.793 0.936-0.559 0.361-1.114 0.88-1.665 1.555v0c-0.444 0.543-0.754 1.107-0.932 1.692-0.179 0.575-0.243 1.143-0.191 1.703 0.047 0.557 0.199 1.081 0.457 1.573 0.263 0.496 0.614 0.923 1.051 1.28v0c0.412 0.336 0.838 0.605 1.28 0.808 0.442 0.202 0.901 0.323 1.38 0.361 0.478 0.039 0.984-0.01 1.517-0.146 0.538-0.132 1.099-0.36 1.68-0.686v0c-0.539 0.466-1.087 0.805-1.647 1.016-0.554 0.216-1.102 0.322-1.645 0.319-0.542-0.003-1.071-0.109-1.586-0.319-0.519-0.204-1.008-0.493-1.467-0.868zM52.943 60.623l4.67-5.721-2.129-1.738 0.426-0.522 2.62 2.138-5.097 6.244zM41.544 71.6v0c0.573-0.121 1.157-0.313 1.749-0.577 0.593-0.263 1.18-0.584 1.762-0.962 0.572-0.377 1.124-0.806 1.656-1.286 0.538-0.475 1.032-0.99 1.484-1.544v0c0.784-0.96 1.395-1.951 1.834-2.973 0.443-1.027 0.716-2.04 0.818-3.038v0l0.601 0.491c-0.145 0.963-0.453 1.96-0.924 2.99-0.472 1.03-1.08 2.002-1.825 2.915v0c-0.517 0.633-1.071 1.209-1.662 1.729-0.595 0.525-1.202 0.966-1.819 1.324-0.623 0.353-1.247 0.613-1.874 0.778-0.622 0.169-1.222 0.22-1.8 0.153z" fill="#ffffff" data-fill-palette-color="primary"></path><path d="M62.26 49.565l-1.515-1.992 2.927-2.226-6.53-8.586-2.927 2.226-1.72-2.26 5.789-4.403 1.689 2.219c0.008-0.563 0.084-1.15 0.225-1.762 0.142-0.613 0.366-1.224 0.672-1.833 0.306-0.61 0.693-1.203 1.161-1.782 0.477-0.577 1.043-1.114 1.699-1.613v0c0.195-0.148 0.445-0.326 0.75-0.532 0.301-0.212 0.601-0.397 0.899-0.556v0l1.986 2.61c-0.368 0.169-0.711 0.353-1.031 0.553-0.324 0.204-0.627 0.413-0.909 0.627v0c-0.71 0.54-1.296 1.165-1.756 1.875-0.465 0.705-0.782 1.463-0.951 2.276-0.168 0.803-0.174 1.638-0.02 2.505 0.15 0.861 0.493 1.717 1.028 2.568v0l2.808 3.691 4.789-3.642 1.515 1.992zM66.849 41.66l-1.28-1.683c-0.635-0.835-1.093-1.663-1.376-2.483-0.287-0.817-0.406-1.603-0.357-2.36 0.054-0.751 0.271-1.46 0.654-2.127 0.384-0.677 0.93-1.285 1.64-1.825v0c0.152-0.115 0.352-0.246 0.6-0.392 0.25-0.156 0.516-0.307 0.798-0.453 0.288-0.15 0.584-0.29 0.888-0.419 0.314-0.127 0.607-0.226 0.879-0.296v0l-2.387-3.138 0.528-0.402 2.894 3.805c-0.332 0.081-0.672 0.19-1.021 0.328-0.353 0.132-0.702 0.281-1.045 0.448-0.348 0.162-0.669 0.329-0.965 0.503-0.297 0.183-0.557 0.359-0.779 0.528v0c-0.65 0.495-1.145 1.037-1.483 1.628-0.338 0.591-0.528 1.219-0.569 1.884-0.046 0.66 0.059 1.349 0.316 2.069 0.258 0.711 0.663 1.429 1.216 2.156v0l1.385 1.821zM56.106 39.82l-0.383-0.504 1.569-1.193 0.383 0.504zM63.768 49.894l10.741-8.169-1.664-2.187 0.529-0.402 2.047 2.691-11.27 8.571z" fill="#ffffff" data-fill-palette-color="primary"></path><path d="M84.465 40.741l2.595-1.155-7.595-17.059-3.36 1.496-1.155-2.595 6.645-2.958 0.905 2.035c0.419-1.118 1.075-2.141 1.967-3.068 0.892-0.926 1.979-1.675 3.26-2.245v0c1.406-0.626 2.748-0.97 4.025-1.032 1.277-0.062 2.441 0.091 3.492 0.459 1.057 0.364 1.977 0.909 2.762 1.632 0.785 0.724 1.39 1.565 1.816 2.524v0c0.551 1.238 0.833 2.44 0.845 3.605 0.009 1.159-0.219 2.245-0.686 3.257-0.46 1.01-1.14 1.927-2.039 2.753-0.906 0.828-2 1.528-3.281 2.098v0c-1.319 0.587-2.621 0.928-3.906 1.023-1.281 0.086-2.475-0.083-3.581-0.508v0l3.17 7.121 4.125-1.837 1.018 2.287-10.004 4.454zM91.021 36.905l-1.861-4.18c0.914 0.078 1.902 0.011 2.963-0.201 1.052-0.215 2.07-0.541 3.053-0.979v0c1.338-0.596 2.513-1.346 3.526-2.252 1.01-0.912 1.791-1.938 2.342-3.078 0.545-1.137 0.824-2.376 0.839-3.717 0.012-1.347-0.308-2.751-0.959-4.213v0c-0.283-0.635-0.665-1.243-1.149-1.826-0.477-0.585-1.023-1.117-1.638-1.596-0.613-0.473-1.288-0.876-2.027-1.212-0.729-0.331-1.487-0.561-2.274-0.687v0c0.914 0.01 1.781 0.158 2.601 0.441 0.816 0.293 1.56 0.674 2.23 1.143 0.665 0.472 1.247 1.01 1.748 1.615 0.498 0.598 0.885 1.209 1.162 1.831v0c0.637 1.431 0.978 2.841 1.022 4.23 0.042 1.383-0.204 2.689-0.738 3.918-0.527 1.226-1.334 2.353-2.42 3.381-1.086 1.028-2.437 1.901-4.054 2.621v0c-0.411 0.183-0.84 0.348-1.289 0.496-0.445 0.139-0.894 0.26-1.347 0.365-0.453 0.105-0.9 0.188-1.342 0.25-0.442 0.063-0.853 0.093-1.235 0.091v0l1.463 3.285zM84.86 25.805v0c0.36 0.809 0.854 1.457 1.482 1.946 0.624 0.497 1.331 0.839 2.121 1.023 0.79 0.185 1.633 0.22 2.529 0.105 0.895-0.115 1.794-0.374 2.696-0.776v0c0.809-0.36 1.481-0.809 2.018-1.345 0.527-0.54 0.916-1.149 1.165-1.828 0.253-0.672 0.355-1.396 0.308-2.172-0.048-0.776-0.253-1.572-0.615-2.387v0c-0.343-0.771-0.805-1.416-1.386-1.932-0.574-0.52-1.219-0.896-1.934-1.13-0.712-0.227-1.467-0.316-2.266-0.266-0.804 0.052-1.601 0.254-2.391 0.606v0c-0.871 0.388-1.623 0.875-2.256 1.463-0.633 0.587-1.118 1.239-1.455 1.956-0.343 0.719-0.522 1.481-0.537 2.286-0.021 0.807 0.153 1.624 0.521 2.451zM85.953 25.296v0c-0.258-0.579-0.386-1.185-0.385-1.819 0.004-0.643 0.137-1.258 0.398-1.843 0.258-0.592 0.64-1.142 1.144-1.65 0.513-0.504 1.147-0.924 1.9-1.259v0c0.803-0.357 1.577-0.534 2.324-0.532 0.741 0.006 1.377 0.162 1.908 0.47v0c-0.781-0.114-1.491-0.1-2.128 0.042-0.637 0.142-1.252 0.345-1.843 0.608v0c-0.666 0.296-1.219 0.669-1.659 1.119-0.444 0.444-0.779 0.921-1.007 1.432-0.227 0.511-0.344 1.036-0.349 1.575-0.006 0.539 0.098 1.049 0.311 1.528v0c0.413 0.927 1.005 1.621 1.777 2.083 0.766 0.464 1.779 0.706 3.04 0.726v0c-0.585 0.126-1.154 0.171-1.707 0.134-0.55-0.046-1.061-0.173-1.533-0.38-0.479-0.204-0.905-0.492-1.278-0.862-0.367-0.373-0.672-0.83-0.913-1.372zM77.755 25.267l-0.258-0.578 1.802-0.802 0.257 0.578zM86.875 43.694l10.182-4.533-1.118-2.511 0.616-0.274 1.375 3.089-10.797 4.807z" fill="#ffffff" data-fill-palette-color="primary"></path><path d="M110.596 24.686l-0.344-2.655 4.478-0.579-1.984-15.328-4.478 0.579-0.343-2.654 12.684-1.642 0.343 2.655-4.437 0.574 0.844 6.524 14.801-1.916-0.844-6.524-4.448 0.576-0.343-2.654 12.684-1.642 0.343 2.654-4.478 0.58 1.984 15.328 4.478-0.58 0.344 2.654-12.684 1.642-0.344-2.654 4.448-0.576-0.871-6.727-14.801 1.916 0.871 6.727 4.437-0.574 0.344 2.654zM138.125 17.414l-1.706-13.18 4.458-0.577-0.383-2.958 0.658-0.085 0.466 3.596-4.458 0.577 1.624 12.542zM118.416 11.014l-0.566-4.376 4.427-0.573-0.383-2.959 0.669-0.086 0.465 3.596-4.427 0.573 0.484 3.739zM128.093 5.961l-0.082-0.639 2.755-0.356 0.083 0.638zM109.503 8.367l-0.082-0.638 2.858 0.278v0zM119.556 19.818l-0.592-4.569 12.947-1.676 0.082 0.628-12.279 1.589 0.51 3.941zM130.34 23.315l12.876-1.667-0.374-2.887 0.638-0.083 0.455 3.515-13.514 1.75zM111.75 25.721l12.876-1.667-0.374-2.887 0.659-0.085 0.455 3.515-13.535 1.752z" fill="#ffffff" data-fill-palette-color="primary"></path><path d="M150.373 13.637v0c0.184-1.171 0.574-2.25 1.17-3.239 0.596-0.989 1.385-1.816 2.365-2.483 0.988-0.672 2.158-1.147 3.511-1.424 1.353-0.277 2.871-0.284 4.553-0.02v0c1.581 0.248 2.961 0.682 4.139 1.301 1.178 0.619 2.138 1.4 2.879 2.344 0.749 0.938 1.261 2.025 1.536 3.26 0.276 1.229 0.297 2.587 0.064 4.074v0l-16.702-2.621c-0.024 0.81 0.125 1.553 0.446 2.231 0.313 0.683 0.756 1.287 1.329 1.811 0.573 0.524 1.245 0.961 2.017 1.31 0.774 0.342 1.601 0.582 2.483 0.72v0c0.713 0.112 1.452 0.169 2.217 0.172 0.758 0.002 1.482-0.043 2.171-0.135 0.698-0.097 1.322-0.23 1.873-0.399 0.556-0.161 0.993-0.354 1.311-0.58v0l0.625 0.098 1.29 1.93c-1.282 0.791-2.777 1.312-4.484 1.56-1.7 0.243-3.528 0.212-5.486-0.095v0c-1.709-0.268-3.187-0.714-4.433-1.337-1.253-0.624-2.269-1.376-3.048-2.257-0.78-0.874-1.324-1.845-1.632-2.913-0.309-1.062-0.374-2.165-0.194-3.308zM155.3 16.24l16.228 2.546c0.047-0.165 0.092-0.344 0.136-0.537 0.036-0.187 0.072-0.392 0.106-0.614v0c0.147-0.935 0.193-1.845 0.139-2.729-0.061-0.885-0.22-1.72-0.476-2.504-0.255-0.791-0.604-1.532-1.047-2.222-0.443-0.69-0.971-1.304-1.583-1.841v0c0.681 0.403 1.286 0.901 1.813 1.494 0.534 0.594 0.967 1.286 1.298 2.075 0.325 0.782 0.539 1.66 0.641 2.634 0.102 0.974 0.063 2.04-0.119 3.198v0c-0.014 0.087-0.035 0.198-0.062 0.331-0.027 0.127-0.06 0.273-0.1 0.439-0.032 0.16-0.072 0.327-0.12 0.499-0.04 0.166-0.083 0.332-0.129 0.496v0l-15.602-2.448c0.154 0.383 0.481 0.803 0.981 1.26 0.507 0.459 1.185 0.882 2.034 1.271v0c-0.552-0.087-1.056-0.231-1.514-0.434-0.457-0.209-0.862-0.459-1.216-0.749-0.353-0.297-0.653-0.63-0.898-0.999-0.239-0.368-0.409-0.757-0.51-1.166zM154.312 12.786l12.786 2.007c-0.062-0.789-0.228-1.511-0.498-2.167-0.277-0.65-0.653-1.219-1.128-1.708-0.483-0.482-1.054-0.886-1.713-1.209-0.659-0.324-1.399-0.55-2.22-0.68v0c-0.895-0.14-1.727-0.15-2.497-0.03-0.77 0.12-1.461 0.35-2.073 0.689-0.618 0.337-1.151 0.771-1.6 1.3-0.447 0.523-0.8 1.122-1.057 1.798zM156.685 12.424l-0.757-0.118c0.552-0.837 1.306-1.446 2.261-1.827 0.956-0.381 2.012-0.48 3.17-0.299v0c0.471 0.074 0.922 0.186 1.353 0.336 0.432 0.144 0.828 0.326 1.186 0.548 0.351 0.221 0.654 0.468 0.908 0.742 0.247 0.273 0.431 0.571 0.552 0.894v0c-0.56-0.515-1.185-0.927-1.874-1.235-0.681-0.314-1.436-0.536-2.264-0.666v0c-0.955-0.15-1.827-0.083-2.616 0.2-0.789 0.283-1.429 0.758-1.919 1.425zM151.283 20.883v0c0.95 0.928 2.099 1.712 3.447 2.35 1.347 0.639 2.936 1.102 4.766 1.389v0c1.783 0.28 3.483 0.34 5.101 0.18 1.625-0.165 3.129-0.567 4.511-1.205v0l0.38 0.546c-1.571 0.739-3.174 1.184-4.811 1.334-1.629 0.144-3.301 0.082-5.017-0.188v0c-2.234-0.35-4.042-0.91-5.424-1.678-1.389-0.769-2.373-1.679-2.953-2.728z" fill="#ffffff" data-fill-palette-color="primary"></path><path d="M179.737 19.369v0c0.408-0.951 1.013-1.811 1.817-2.578 0.806-0.773 1.761-1.368 2.865-1.784 1.104-0.416 2.338-0.613 3.699-0.592 1.359 0.027 2.79 0.362 4.293 1.006v0c0.482 0.207 0.982 0.466 1.5 0.777 0.515 0.302 1.013 0.653 1.495 1.051 0.475 0.396 0.916 0.845 1.323 1.346 0.404 0.492 0.739 1.024 1.005 1.598v0l0.704-1.644 6.601 2.83-1.119 2.61-3.371-1.445-4.25 9.915 3.371 1.445-0.986 2.3-6.601-2.829 0.857-2c-0.572 0.229-1.178 0.388-1.816 0.477-0.638 0.089-1.287 0.115-1.945 0.078-0.652-0.035-1.307-0.131-1.966-0.287-0.653-0.154-1.283-0.361-1.89-0.622v0c-1.471-0.631-2.677-1.396-3.617-2.295-0.934-0.897-1.621-1.862-2.06-2.895-0.448-1.029-0.656-2.1-0.624-3.212 0.023-1.109 0.262-2.192 0.715-3.25zM197.796 32l3.389-7.905 3.38 1.449 1.078-2.517 0.62 0.266-1.328 3.098-3.38-1.449-3.139 7.324zM183.123 20.676v0c-0.365 0.851-0.545 1.686-0.54 2.503 0.014 0.814 0.178 1.573 0.491 2.277 0.319 0.707 0.778 1.349 1.376 1.924 0.607 0.571 1.324 1.034 2.15 1.388v0c0.482 0.207 0.99 0.369 1.525 0.487 0.544 0.115 1.09 0.171 1.639 0.169 0.555 0.001 1.104-0.06 1.646-0.183 0.542-0.123 1.053-0.33 1.533-0.621 0.484-0.282 0.927-0.651 1.331-1.108 0.41-0.454 0.755-1.01 1.037-1.667v0c0.311-0.726 0.437-1.487 0.378-2.283-0.059-0.796-0.269-1.56-0.629-2.293-0.358-0.739-0.855-1.411-1.491-2.017-0.634-0.613-1.37-1.099-2.209-1.458v0c-0.839-0.36-1.673-0.565-2.503-0.617-0.836-0.055-1.618 0.04-2.344 0.284-0.727 0.244-1.387 0.635-1.982 1.173-0.588 0.541-1.057 1.221-1.408 2.042zM184.152 21.206v0c0.276-0.645 0.652-1.184 1.126-1.618 0.466-0.43 0.999-0.75 1.601-0.959 0.595-0.212 1.238-0.303 1.928-0.273 0.689 0.036 1.386 0.205 2.094 0.508v0c0.532 0.228 0.989 0.494 1.37 0.798 0.381 0.304 0.692 0.608 0.932 0.911 0.247 0.306 0.436 0.591 0.567 0.855 0.122 0.267 0.199 0.486 0.231 0.654v0c-0.426-0.545-0.891-1.034-1.395-1.465-0.502-0.437-1.153-0.828-1.954-1.171v0c-0.645-0.276-1.272-0.419-1.883-0.429-0.602-0.013-1.165 0.082-1.691 0.287-0.522 0.198-0.984 0.49-1.385 0.873-0.404 0.39-0.718 0.845-0.941 1.364v0c-0.209 0.488-0.35 0.972-0.422 1.453-0.072 0.48-0.061 0.955 0.033 1.425 0.095 0.47 0.281 0.943 0.559 1.418 0.275 0.481 0.65 0.956 1.123 1.426v0c-0.596-0.389-1.073-0.823-1.431-1.302-0.36-0.473-0.614-0.971-0.761-1.493-0.147-0.522-0.19-1.06-0.131-1.613 0.053-0.555 0.196-1.105 0.43-1.649zM192.54 34.849l6.789 2.91 1.082-2.526 0.62 0.266-1.332 3.107-7.408-3.175zM178.845 26.922v0c0.274 0.518 0.62 1.025 1.037 1.522 0.417 0.497 0.887 0.973 1.41 1.428 0.52 0.445 1.085 0.858 1.693 1.236 0.605 0.385 1.237 0.719 1.894 1.001v0c1.139 0.488 2.261 0.802 3.364 0.942 1.11 0.142 2.158 0.125 3.145-0.052v0l-0.305 0.714c-0.966 0.127-2.009 0.106-3.13-0.064-1.12-0.169-2.222-0.486-3.305-0.95v0c-0.751-0.322-1.458-0.695-2.12-1.12-0.669-0.427-1.26-0.888-1.775-1.383-0.511-0.501-0.933-1.03-1.264-1.587-0.334-0.551-0.549-1.113-0.644-1.687z" fill="#ffffff" data-fill-palette-color="primary"></path><path d="M213.172 46.952l2.248-15.737-2.803-2.285 1.588-1.948 8.891 7.249-1.588 1.948-2.787-2.272-1.943 12.453 11.633-4.552-2.968-2.421 1.588-1.947 8.629 7.036-1.588 1.948-2.668-2.176-14.859 5.454zM213.34 48.605l3.08 2.511 14.866-5.462 2.985 2.434 1.73-2.122 0.514 0.42-2.13 2.612-3.159-2.575-14.866 5.461-3.23-2.633zM218.267 44.938l1.484-8.689 2.201 1.794 1.484-2.321 0.515 0.419-2.131 2.613-1.567-1.278-1.285 7.217zM224.94 41.297l0.4-0.491 1.172 0.956-0.701 0.245zM212.265 30.962l0.4-0.491 1.876 1.53-0.107 0.73z" fill="#ffffff" data-fill-palette-color="primary"></path><path d="M235.73 56.791v0c0.947-0.712 1.98-1.214 3.096-1.508 1.117-0.294 2.259-0.338 3.427-0.133 1.177 0.206 2.347 0.681 3.511 1.425 1.164 0.744 2.257 1.797 3.279 3.159v0c0.961 1.28 1.648 2.552 2.062 3.817 0.414 1.265 0.557 2.494 0.431 3.687-0.116 1.195-0.506 2.331-1.17 3.409-0.658 1.074-1.589 2.063-2.793 2.966v0l-10.153-13.518c-0.581 0.564-0.993 1.201-1.235 1.911-0.251 0.708-0.354 1.45-0.309 2.225 0.045 0.775 0.224 1.557 0.535 2.345 0.317 0.784 0.743 1.533 1.279 2.247v0c0.434 0.577 0.924 1.133 1.47 1.668 0.542 0.529 1.093 1.002 1.651 1.417 0.568 0.416 1.109 0.756 1.621 1.018 0.511 0.272 0.959 0.438 1.345 0.498v0l0.38 0.506-0.419 2.283c-1.471-0.326-2.906-0.994-4.304-2.006-1.389-1.01-2.678-2.307-3.868-3.891v0c-1.039-1.383-1.788-2.732-2.248-4.048-0.464-1.321-0.668-2.568-0.614-3.742 0.05-1.17 0.336-2.246 0.86-3.227 0.518-0.977 1.24-1.813 2.166-2.508zM237.45 62.091l9.865 13.134c0.148-0.086 0.306-0.183 0.471-0.29 0.157-0.109 0.325-0.231 0.505-0.366v0c0.757-0.568 1.424-1.189 2.001-1.861 0.573-0.677 1.041-1.387 1.404-2.127 0.369-0.745 0.634-1.52 0.797-2.324 0.163-0.804 0.212-1.611 0.148-2.423v0c0.208 0.764 0.294 1.542 0.259 2.335-0.031 0.798-0.203 1.596-0.516 2.393-0.311 0.787-0.77 1.566-1.375 2.336-0.606 0.77-1.377 1.507-2.313 2.21v0c-0.071 0.053-0.163 0.118-0.276 0.194-0.108 0.072-0.233 0.154-0.378 0.246-0.135 0.093-0.279 0.184-0.433 0.274-0.144 0.091-0.291 0.18-0.439 0.266v0l-9.484-12.628c-0.156 0.381-0.215 0.911-0.175 1.587 0.044 0.682 0.235 1.459 0.574 2.329v0c-0.335-0.447-0.597-0.902-0.783-1.366-0.181-0.468-0.298-0.93-0.351-1.385-0.047-0.459-0.029-0.906 0.052-1.342 0.086-0.43 0.234-0.828 0.447-1.192zM239.148 58.925l7.772 10.349c0.505-0.609 0.889-1.243 1.153-1.901 0.254-0.659 0.381-1.33 0.381-2.01-0.01-0.682-0.139-1.369-0.385-2.061-0.247-0.692-0.62-1.37-1.119-2.034v0c-0.544-0.724-1.134-1.312-1.771-1.762-0.636-0.45-1.292-0.767-1.966-0.951-0.678-0.189-1.363-0.25-2.053-0.183-0.685 0.063-1.356 0.247-2.012 0.553zM241.102 60.319l-0.46-0.612c0.979-0.216 1.944-0.127 2.895 0.265 0.951 0.393 1.778 1.058 2.481 1.995v0c0.286 0.381 0.532 0.776 0.737 1.184 0.21 0.404 0.366 0.811 0.468 1.22 0.098 0.403 0.143 0.791 0.134 1.164-0.013 0.368-0.089 0.71-0.226 1.026v0c-0.043-0.76-0.204-1.491-0.484-2.192-0.27-0.7-0.657-1.385-1.159-2.054v0c-0.581-0.773-1.253-1.333-2.016-1.681-0.763-0.347-1.553-0.452-2.37-0.315zM231.334 62.623v0c0.035 1.328 0.313 2.69 0.834 4.087 0.521 1.397 1.338 2.836 2.45 4.317v0c1.084 1.443 2.261 2.671 3.533 3.684 1.281 1.014 2.639 1.774 4.076 2.279v0l-0.108 0.656c-1.642-0.564-3.102-1.363-4.38-2.396-1.269-1.032-2.425-2.242-3.468-3.63v0c-1.358-1.808-2.265-3.469-2.72-4.983-0.46-1.52-0.532-2.858-0.217-4.014z" fill="#ffffff" data-fill-palette-color="primary"></path><path d="M245.644 85.053l2.316-0.95 1.395 3.403 9.981-4.093-1.396-3.402 2.628-1.078 2.76 6.729-2.335 0.958c0.52 0.155 1.042 0.386 1.565 0.694 0.526 0.314 1.029 0.697 1.509 1.148 0.479 0.451 0.925 0.971 1.336 1.561 0.411 0.59 0.763 1.24 1.054 1.952v0c0.439 1.071 0.689 2.11 0.748 3.116 0.05 1.002-0.113 1.942-0.49 2.817-0.383 0.878-0.988 1.682-1.815 2.412-0.827 0.729-1.899 1.364-3.216 1.904v0l-5.387 2.209 1.395 3.403-2.315 0.949-3.838-9.356 2.316-0.95 1.081 2.637 4.074-1.671c0.832-0.341 1.558-0.687 2.18-1.037 0.624-0.344 1.093-0.665 1.405-0.963v0c0.398-0.377 0.705-0.775 0.923-1.195 0.211-0.418 0.347-0.849 0.408-1.294 0.057-0.436 0.046-0.884-0.033-1.344-0.079-0.461-0.216-0.931-0.412-1.41v0c-0.207-0.504-0.516-0.988-0.927-1.453-0.405-0.467-0.879-0.887-1.422-1.26-0.543-0.373-1.131-0.684-1.763-0.933-0.635-0.255-1.275-0.416-1.92-0.483v0l-6.73 2.76 1.078 2.627-2.316 0.95zM257.69 105.165l4.338-1.779c0.907-0.372 1.723-0.788 2.448-1.247 0.718-0.456 1.332-0.951 1.842-1.484 0.51-0.533 0.908-1.097 1.194-1.693 0.286-0.596 0.454-1.217 0.505-1.863v0c0.11 0.772 0.06 1.492-0.152 2.16-0.218 0.671-0.582 1.291-1.091 1.861-0.51 0.57-1.154 1.099-1.933 1.587-0.772 0.486-1.659 0.934-2.661 1.345v0l-4.234 1.737zM252.109 91.555l5.406-2.217c0.56 0.072 1.099 0.212 1.618 0.418 0.516 0.2 0.992 0.454 1.427 0.762 0.431 0.316 0.813 0.671 1.144 1.066 0.334 0.401 0.593 0.828 0.779 1.281v0c0.292 0.712 0.396 1.343 0.313 1.892-0.087 0.558-0.293 1.026-0.618 1.402v0c0.101-0.417 0.149-0.875 0.144-1.373-0.012-0.496-0.151-1.068-0.418-1.717v0c-0.165-0.403-0.408-0.779-0.726-1.126-0.322-0.354-0.682-0.666-1.08-0.937-0.398-0.271-0.819-0.489-1.262-0.653-0.443-0.164-0.864-0.268-1.264-0.31v0l-5.208 2.136zM256.647 81.623l0.586-0.241 0.748 1.825-0.586 0.24zM250.836 100.81l3.911 9.536 2.542-1.042 0.252 0.614-3.128 1.283-4.163-10.151zM244.937 86.425l3.911 9.536 2.542-1.042 0.256 0.624-3.128 1.283-4.167-10.161z" fill="#ffffff" data-fill-palette-color="primary"></path><path d="M3.326 141.218c0-4.39 3.559-7.949 7.948-7.948 4.39 0 7.949 3.559 7.949 7.948 0 4.39-3.559 7.949-7.949 7.949-4.39 0-7.949-3.559-7.948-7.949z" fill="#ffffff" data-fill-palette-color="primary"></path><path d="M260.497 141.218c0-4.39 3.559-7.949 7.949-7.948 4.39 0 7.949 3.559 7.948 7.948 0 4.39-3.559 7.949-7.948 7.949-4.39 0-7.949-3.559-7.949-7.949z" fill="#ffffff" data-fill-palette-color="primary"></path></g><g id="text-1"><path d="M12.559 183.379l-1.862-6 0.673-0.209c0.181 0.514 0.411 0.831 0.691 0.952 0.288 0.124 0.63 0.136 1.027 0.034 0.396-0.102 0.848-0.231 1.355-0.389v0l8.625-2.676c0.371-0.115 0.691-0.207 0.962-0.277 0.271-0.07 0.496-0.125 0.676-0.167v0c-0.09-0.243-0.178-0.483-0.266-0.72-0.09-0.243-0.179-0.486-0.269-0.729v0l0.907-0.281c0.247 0.75 0.491 1.502 0.732 2.254 0.243 0.759 0.492 1.551 0.748 2.377v0c0.492 1.587 0.598 2.916 0.317 3.988-0.287 1.073-1.044 1.782-2.27 2.127v0c-0.436 0.135-0.914 0.145-1.435 0.028-0.514-0.118-1.018-0.372-1.509-0.762-0.487-0.398-0.916-0.953-1.287-1.665v0l-0.049 0.015c0.468 1.509 0.476 2.751 0.022 3.726-0.451 0.981-1.204 1.636-2.257 1.963v0c-0.839 0.26-1.623 0.272-2.353 0.035-0.736-0.235-1.38-0.666-1.931-1.294-0.543-0.623-0.958-1.4-1.247-2.33zM12.491 180.266v0c0.056 0.225 0.128 0.492 0.216 0.8 0.088 0.308 0.174 0.595 0.257 0.861 0.083 0.267 0.137 0.442 0.164 0.527v0c0.327 1.054 0.855 1.824 1.583 2.311 0.729 0.487 1.607 0.571 2.635 0.252v0c0.833-0.258 1.433-0.623 1.799-1.093 0.365-0.477 0.56-1.011 0.583-1.604 0.03-0.594-0.053-1.206-0.249-1.837v0c-0.127-0.41-0.25-0.782-0.368-1.116-0.109-0.33-0.229-0.656-0.357-0.98v0l-4.644 1.441c-0.364 0.113-0.677 0.207-0.94 0.281-0.262 0.074-0.488 0.127-0.679 0.157zM23.378 176.952l-3.824 1.187 0.515 1.487c0.255 0.776 0.605 1.342 1.05 1.696 0.447 0.36 0.935 0.566 1.464 0.615 0.531 0.056 1.045 0 1.541-0.168v0c0.737-0.243 1.248-0.587 1.531-1.031 0.285-0.438 0.423-0.912 0.414-1.423-0.007-0.504-0.081-0.984-0.222-1.439v0c-0.139-0.449-0.305-0.765-0.497-0.947-0.192-0.183-0.441-0.262-0.748-0.239-0.308 0.017-0.716 0.105-1.224 0.262z" fill="#ffffff" data-fill-palette-color="secondary"></path><path d="M15.406 191.512l0.592-0.252c0.174 0.407 0.397 0.645 0.671 0.713 0.267 0.071 0.589 0.045 0.966-0.078 0.374-0.13 0.799-0.296 1.275-0.499v0l4.511-1.923c0.213-0.091 0.424-0.177 0.633-0.259 0.216-0.085 0.444-0.156 0.686-0.214v0c-0.114-0.233-0.222-0.461-0.325-0.684-0.105-0.229-0.215-0.46-0.328-0.692v0l0.808-0.345 0.26 0.611c0.243 0.57 0.466 0.938 0.67 1.103 0.206 0.171 0.406 0.301 0.599 0.388v0l0.244 0.574c-0.202 0.116-0.453 0.249-0.752 0.398-0.308 0.146-0.697 0.327-1.168 0.542v0c0.415 0.053 0.852 0.185 1.313 0.396 0.466 0.208 0.897 0.48 1.291 0.815 0.391 0.344 0.687 0.751 0.887 1.221v0c0.158 0.37 0.199 0.737 0.125 1.102-0.083 0.361-0.341 0.634-0.773 0.818v0c-0.106 0.045-0.25 0.066-0.429 0.061-0.183 0.004-0.359-0.043-0.527-0.142-0.177-0.102-0.315-0.269-0.413-0.501v0c-0.113-0.3-0.099-0.58 0.042-0.84 0.147-0.263 0.376-0.438 0.686-0.526v0c-0.129-0.337-0.362-0.641-0.7-0.912-0.329-0.267-0.721-0.485-1.177-0.653-0.448-0.165-0.942-0.272-1.482-0.323v0l-4.86 2.093c-0.263 0.112-0.499 0.209-0.709 0.291-0.203 0.079-0.425 0.148-0.667 0.207v0c0.101 0.201 0.198 0.404 0.293 0.608 0.094 0.204 0.192 0.407 0.292 0.608v0l-0.808 0.344z" fill="#ffffff" data-fill-palette-color="secondary"></path><path d="M22.048 206.321v0c-0.465-0.871-0.679-1.768-0.64-2.692 0.033-0.921 0.317-1.783 0.853-2.587 0.538-0.813 1.318-1.492 2.339-2.038v0c0.889-0.475 1.825-0.717 2.809-0.726 0.981-0.014 1.901 0.212 2.761 0.679 0.86 0.467 1.543 1.175 2.05 2.125v0c0.282 0.529 0.463 1.069 0.542 1.621 0.073 0.556 0.033 1.102-0.12 1.639-0.159 0.541-0.448 1.054-0.867 1.541-0.417 0.477-0.979 0.906-1.688 1.284v0l-3.685-6.613c-0.961 0.514-1.749 1.07-2.363 1.669-0.614 0.599-0.995 1.238-1.141 1.918-0.146 0.68-0.023 1.387 0.368 2.12v0c0.209 0.39 0.491 0.753 0.848 1.087 0.36 0.341 0.754 0.624 1.184 0.85 0.43 0.226 0.845 0.367 1.245 0.423v0l-0.133 0.662c-0.712-0.06-1.355-0.245-1.93-0.556-0.569-0.314-1.061-0.684-1.474-1.111-0.408-0.431-0.727-0.862-0.958-1.295zM27.237 200.189v0l2.581 4.829c0.456-0.244 0.86-0.544 1.209-0.901 0.356-0.36 0.589-0.762 0.699-1.208 0.107-0.451 0.028-0.922-0.235-1.415v0c-0.392-0.733-0.934-1.227-1.626-1.482-0.698-0.252-1.574-0.193-2.628 0.177z" fill="#ffffff" data-fill-palette-color="secondary"></path><path d="M31.887 221.355l-1.714-2.552c0.177-0.176 0.338-0.321 0.483-0.435 0.151-0.118 0.3-0.243 0.449-0.376v0c-0.68-0.134-1.294-0.357-1.841-0.671-0.547-0.314-0.997-0.733-1.35-1.259v0c-0.608-0.905-0.853-1.716-0.737-2.434 0.12-0.713 0.477-1.268 1.071-1.666v0c0.548-0.368 1.134-0.516 1.758-0.443 0.629 0.07 1.251 0.287 1.866 0.654 0.619 0.372 1.205 0.835 1.759 1.391 0.55 0.55 1.02 1.128 1.411 1.734v0l1.111-0.746c0.418-0.281 0.787-0.582 1.105-0.902 0.318-0.32 0.516-0.679 0.594-1.076 0.078-0.397-0.052-0.859-0.39-1.387v0c-0.215-0.356-0.519-0.669-0.913-0.937-0.384-0.267-0.804-0.366-1.259-0.299v0c-0.035 0.155-0.104 0.291-0.205 0.409-0.105 0.112-0.212 0.204-0.32 0.276v0c-0.141 0.095-0.345 0.146-0.611 0.152-0.266 0.007-0.492-0.146-0.676-0.457v0c-0.167-0.249-0.209-0.495-0.127-0.739 0.088-0.248 0.251-0.451 0.488-0.611v0c0.401-0.27 0.864-0.363 1.387-0.279 0.527 0.089 1.067 0.337 1.621 0.745 0.547 0.412 1.049 0.957 1.504 1.635v0c0.668 0.995 0.901 1.909 0.698 2.743-0.212 0.832-0.893 1.626-2.043 2.381v0c-0.441 0.296-0.885 0.594-1.331 0.895-0.447 0.3-0.895 0.597-1.346 0.891-0.45 0.294-0.902 0.593-1.354 0.897v0c-0.192 0.129-0.385 0.251-0.579 0.365-0.204 0.112-0.432 0.237-0.685 0.374v0c0.156 0.207 0.309 0.412 0.462 0.613 0.152 0.202 0.306 0.406 0.461 0.613v0zM34.44 215.703v0c-0.285-0.399-0.622-0.792-1.012-1.178-0.39-0.386-0.799-0.706-1.225-0.962-0.432-0.252-0.872-0.395-1.322-0.429-0.448-0.044-0.875 0.083-1.282 0.381v0c-0.426 0.319-0.66 0.685-0.701 1.099-0.038 0.419 0.066 0.813 0.313 1.18v0c0.327 0.486 0.705 0.848 1.134 1.084 0.433 0.242 0.936 0.429 1.509 0.562v0c0.122-0.099 0.26-0.199 0.413-0.302 0.153-0.103 0.314-0.211 0.483-0.325v0c0.057-0.038 0.248-0.162 0.574-0.373 0.326-0.211 0.698-0.457 1.116-0.737z" fill="#ffffff" data-fill-palette-color="secondary"></path><path d="M36.117 227.234v0c-0.205-0.254-0.38-0.546-0.525-0.877-0.14-0.325-0.196-0.687-0.167-1.086 0.028-0.399 0.19-0.832 0.486-1.299 0.296-0.458 0.78-0.958 1.453-1.502v0l4.873-3.883-1.055-1.275 0.723-0.584c0.246 0.283 0.594 0.492 1.044 0.627 0.451 0.135 0.95 0.178 1.497 0.13 0.548-0.048 1.07-0.199 1.567-0.451v0l0.462 0.572-2.337 1.887 2.266 2.806-0.651 0.526-2.306-2.773-4.681 3.715c-0.503 0.407-0.896 0.793-1.177 1.161-0.281 0.367-0.435 0.719-0.46 1.055-0.026 0.336 0.081 0.653 0.32 0.949v0c0.252 0.313 0.58 0.534 0.983 0.664 0.398 0.125 0.839 0.167 1.323 0.126v0l-0.008 0.755c-0.562 0.052-1.046 0.044-1.45-0.024-0.409-0.073-0.756-0.177-1.042-0.314-0.286-0.137-0.519-0.29-0.699-0.459-0.182-0.16-0.328-0.308-0.439-0.446z" fill="#ffffff" data-fill-palette-color="secondary"></path><path d="M45.199 236.642l0.462-0.448c0.313 0.323 0.609 0.467 0.889 0.433 0.275-0.03 0.564-0.172 0.866-0.428 0.307-0.251 0.647-0.556 1.018-0.916v0l2.163-2.098c0.885-0.858 1.41-1.642 1.575-2.353 0.17-0.715-0.044-1.371-0.642-1.968v0c-0.38-0.372-0.835-0.656-1.367-0.851-0.532-0.196-1.046-0.271-1.543-0.226v0l-4.553 4.417c-0.205 0.199-0.393 0.372-0.564 0.519-0.166 0.142-0.353 0.281-0.563 0.417v0c0.171 0.157 0.337 0.313 0.499 0.47 0.157 0.152 0.32 0.306 0.491 0.463v0l-0.63 0.612-3.052-3.146 0.462-0.448c0.308 0.318 0.602 0.459 0.882 0.425 0.275-0.03 0.568-0.167 0.881-0.413 0.307-0.251 0.647-0.556 1.018-0.916v0l7.303-7.084c0.161-0.156 0.32-0.306 0.476-0.448 0.156-0.142 0.347-0.303 0.571-0.483v0c-0.19-0.176-0.38-0.348-0.57-0.514-0.18-0.167-0.366-0.338-0.555-0.514v0l0.652-0.633c0.436 0.45 0.797 0.783 1.083 0.999 0.286 0.216 0.522 0.357 0.709 0.422 0.187 0.065 0.35 0.102 0.489 0.109v0l0.434 0.447-4.707 4.567c0.414 0.035 0.834 0.121 1.26 0.257 0.422 0.141 0.826 0.318 1.213 0.532 0.387 0.213 0.72 0.464 1 0.752v0c0.868 0.895 1.215 1.81 1.041 2.746-0.178 0.941-0.852 1.993-2.02 3.155v0l-2.86 2.803c-0.205 0.199-0.391 0.375-0.557 0.526-0.161 0.147-0.346 0.289-0.555 0.425v0c0.171 0.157 0.337 0.313 0.498 0.47 0.157 0.152 0.32 0.306 0.492 0.463v0l-0.631 0.611z" fill="#ffffff" data-fill-palette-color="secondary"></path><path d="M54.678 245.742v0c-0.758-0.633-1.291-1.386-1.602-2.258-0.314-0.866-0.373-1.772-0.177-2.718 0.195-0.955 0.664-1.877 1.406-2.765v0c0.646-0.773 1.424-1.348 2.334-1.724 0.904-0.381 1.842-0.515 2.814-0.404 0.972 0.111 1.871 0.512 2.696 1.202v0c0.46 0.384 0.83 0.818 1.11 1.301 0.276 0.488 0.443 1.01 0.502 1.565 0.055 0.561-0.021 1.145-0.227 1.754-0.208 0.599-0.569 1.206-1.085 1.823v0l-5.893-4.754c-0.699 0.836-1.221 1.647-1.566 2.432-0.346 0.785-0.459 1.52-0.34 2.206 0.119 0.686 0.498 1.295 1.135 1.828v0c0.34 0.284 0.737 0.514 1.193 0.691 0.461 0.181 0.933 0.296 1.416 0.345 0.483 0.049 0.921 0.024 1.313-0.074v0l0.125 0.663c-0.682 0.211-1.348 0.28-1.998 0.208-0.645-0.078-1.24-0.237-1.783-0.479-0.539-0.247-0.997-0.527-1.373-0.842zM57.194 238.113v0l4.201 3.512c0.332-0.397 0.593-0.827 0.784-1.289 0.195-0.467 0.26-0.927 0.196-1.381-0.07-0.458-0.319-0.866-0.747-1.224v0c-0.637-0.533-1.325-0.788-2.063-0.766-0.742 0.028-1.532 0.41-2.371 1.148z" fill="#ffffff" data-fill-palette-color="secondary"></path><path d="M75.488 259.384l-0.571-0.318c0.149-1.554 0.289-3.113 0.421-4.678 0.128-1.558 0.281-3.126 0.458-4.703v0c0.047-0.504 0.1-1.005 0.159-1.502 0.059-0.497 0.124-0.999 0.196-1.505 0.074-0.497 0.147-0.998 0.218-1.504v0c-0.076 0.137-0.16 0.273-0.252 0.41-0.082 0.133-0.161 0.269-0.237 0.405v0c-0.264 0.445-0.581 0.978-0.95 1.599-0.369 0.621-0.766 1.284-1.192 1.991-0.425 0.706-0.847 1.415-1.266 2.124-0.413 0.713-0.805 1.388-1.175 2.024v0c-0.164 0.267-0.326 0.536-0.484 0.806-0.162 0.276-0.321 0.527-0.477 0.751v0c0.245 0.121 0.486 0.24 0.725 0.357 0.242 0.111 0.485 0.228 0.729 0.348v0l-0.462 0.83-3.587-1.999 0.343-0.616c0.397 0.198 0.727 0.269 0.992 0.214 0.271-0.052 0.503-0.195 0.696-0.431 0.203-0.238 0.393-0.502 0.571-0.793v0l5.132-8.366c0.151-0.243 0.299-0.488 0.444-0.735 0.145-0.247 0.29-0.485 0.435-0.717v0c-0.233-0.114-0.464-0.231-0.693-0.351-0.223-0.117-0.451-0.232-0.684-0.346v0l0.452-0.812 2.873 1.601-0.928 9.26c-0.048 0.464-0.097 0.929-0.145 1.393-0.058 0.467-0.108 0.934-0.15 1.402-0.036 0.471-0.082 0.944-0.137 1.42v0l0.036 0.02c0.326-0.263 0.715-0.576 1.167-0.94 0.452-0.364 0.834-0.677 1.145-0.94v0c1.317-1.075 2.659-2.14 4.026-3.194 1.364-1.048 2.748-2.152 4.15-3.312v0l2.784 1.551-0.349 0.625c-0.309-0.188-0.601-0.272-0.875-0.254-0.269 0.021-0.531 0.156-0.787 0.403-0.258 0.254-0.518 0.643-0.779 1.168v0l-4.274 8.821c-0.096 0.227-0.2 0.442-0.313 0.645-0.109 0.196-0.211 0.378-0.303 0.544v0c0.233 0.114 0.467 0.233 0.702 0.356 0.239 0.117 0.474 0.233 0.707 0.348v0l-0.463 0.83-4.211-2.348 0.343-0.616c0.403 0.201 0.744 0.267 1.024 0.197 0.29-0.072 0.545-0.258 0.766-0.555 0.23-0.301 0.463-0.697 0.698-1.19v0l3.082-6.41c0.098-0.203 0.197-0.409 0.298-0.618 0.101-0.209 0.2-0.415 0.298-0.617 0.101-0.209 0.202-0.418 0.302-0.627v0c-0.091 0.066-0.186 0.138-0.284 0.216-0.098 0.078-0.199 0.162-0.304 0.251v0z" fill="#ffffff" data-fill-palette-color="secondary"></path><path d="M91.139 267.036v0c-0.724-0.28-1.279-0.648-1.665-1.104-0.383-0.462-0.572-1.061-0.564-1.796 0-0.737 0.212-1.652 0.634-2.745v0l1.382-3.573c0.084-0.216 0.169-0.427 0.257-0.634 0.09-0.213 0.198-0.427 0.325-0.641v0c-0.234-0.076-0.469-0.156-0.707-0.241-0.231-0.082-0.463-0.161-0.697-0.237v0l0.317-0.819 0.619 0.24c0.578 0.224 1.019 0.329 1.324 0.315 0.305-0.014 0.556-0.059 0.754-0.136v0l0.581 0.225-2.366 6.116c-0.445 1.15-0.616 2.073-0.513 2.77 0.112 0.693 0.564 1.186 1.356 1.478v0c0.513 0.184 1.059 0.216 1.638 0.097 0.575-0.128 1.086-0.343 1.531-0.646v0l1.994-5.154c0.123-0.318 0.236-0.591 0.34-0.821 0.104-0.23 0.219-0.452 0.345-0.666v0c-0.246-0.081-0.491-0.165-0.735-0.252-0.237-0.085-0.479-0.167-0.726-0.248v0l0.317-0.819 0.62 0.24c0.572 0.221 1.01 0.325 1.314 0.311 0.311-0.011 0.565-0.055 0.763-0.132v0l0.581 0.225-2.953 7.576c-0.084 0.216-0.207 0.515-0.369 0.898-0.169 0.38-0.318 0.699-0.446 0.955v0c0.246 0.081 0.493 0.161 0.739 0.242 0.246 0.081 0.493 0.161 0.738 0.242v0l-0.324 0.839-2.868-1.11c0.044-0.246 0.095-0.471 0.152-0.675 0.06-0.211 0.116-0.404 0.17-0.58v0c-0.573 0.253-1.212 0.415-1.918 0.484-0.709 0.076-1.355 0.001-1.94-0.224z" fill="#ffffff" data-fill-palette-color="secondary"></path><path d="M105.017 271.671v0c-0.689-0.193-1.275-0.459-1.76-0.8-0.486-0.334-0.87-0.668-1.152-1.001v0l-0.115 0.752-0.876-0.244 0.869-3.597 0.649 0.181c-0.132 0.571-0.115 1.12 0.048 1.647 0.162 0.533 0.438 0.989 0.827 1.366 0.383 0.376 0.837 0.637 1.362 0.784v0c0.361 0.101 0.731 0.141 1.112 0.12 0.374-0.023 0.713-0.122 1.017-0.299 0.304-0.177 0.508-0.452 0.613-0.825v0c0.108-0.387 0.083-0.74-0.075-1.061-0.158-0.32-0.394-0.626-0.708-0.919-0.319-0.301-0.672-0.594-1.059-0.88v0c-0.367-0.28-0.733-0.566-1.096-0.858-0.362-0.299-0.685-0.623-0.97-0.971-0.278-0.346-0.472-0.726-0.583-1.139-0.109-0.419-0.09-0.891 0.057-1.416v0c0.081-0.289 0.225-0.591 0.434-0.908 0.209-0.316 0.487-0.592 0.836-0.826 0.349-0.235 0.781-0.39 1.296-0.465 0.508-0.07 1.112-0.007 1.814 0.189v0c0.374 0.105 0.773 0.283 1.197 0.536 0.418 0.251 0.795 0.608 1.133 1.07v0l0.171-0.801 0.876 0.245-1.016 3.63-0.669-0.187c0.11-0.493 0.132-0.989 0.067-1.487-0.07-0.508-0.251-0.961-0.543-1.361-0.285-0.398-0.726-0.68-1.322-0.847v0c-0.636-0.178-1.179-0.16-1.627 0.054-0.442 0.216-0.722 0.534-0.84 0.953v0c-0.119 0.426-0.084 0.818 0.106 1.175 0.19 0.357 0.469 0.7 0.837 1.03 0.369 0.323 0.769 0.65 1.199 0.982v0c0.464 0.363 0.909 0.746 1.334 1.147 0.425 0.402 0.74 0.843 0.945 1.325 0.205 0.482 0.22 1.034 0.046 1.657v0c-0.193 0.689-0.527 1.214-1.003 1.576-0.481 0.353-1.024 0.562-1.629 0.627-0.605 0.064-1.206 0.013-1.802-0.154z" fill="#ffffff" data-fill-palette-color="secondary"></path><path d="M112.244 273.086l0.126-0.631c0.434 0.087 0.757 0.037 0.968-0.15 0.21-0.18 0.37-0.461 0.481-0.842 0.104-0.382 0.207-0.827 0.309-1.334v0l0.962-4.808c0.045-0.227 0.095-0.439 0.149-0.637 0.055-0.204 0.124-0.444 0.206-0.719v0c-0.256-0.037-0.506-0.074-0.749-0.108-0.25-0.036-0.503-0.07-0.761-0.1v0l0.178-0.892c0.614 0.123 1.097 0.192 1.449 0.207 0.346 0.007 0.617-0.012 0.813-0.056 0.191-0.052 0.347-0.118 0.467-0.198v0l0.611 0.122-1.707 8.524c-0.056 0.28-0.11 0.53-0.16 0.749-0.049 0.212-0.122 0.434-0.217 0.665v0c0.23 0.032 0.455 0.067 0.677 0.105 0.215 0.036 0.437 0.07 0.667 0.102v0l-0.172 0.861zM116.858 260.654v0c-0.294-0.059-0.53-0.231-0.709-0.517-0.179-0.286-0.234-0.602-0.164-0.95v0c0.071-0.354 0.248-0.631 0.531-0.831 0.283-0.2 0.572-0.271 0.866-0.212v0c0.321 0.064 0.566 0.242 0.737 0.533 0.171 0.291 0.221 0.614 0.15 0.968v0c-0.07 0.347-0.245 0.618-0.527 0.811-0.282 0.194-0.576 0.26-0.884 0.198z" fill="#ffffff" data-fill-palette-color="secondary"></path><path d="M125.137 275.425v0c-0.953-0.114-1.806-0.439-2.558-0.975-0.753-0.529-1.317-1.231-1.692-2.107-0.382-0.876-0.504-1.888-0.366-3.037v0c0.089-0.744 0.311-1.448 0.664-2.112 0.354-0.664 0.811-1.247 1.373-1.749 0.561-0.502 1.203-0.878 1.925-1.128 0.722-0.243 1.495-0.315 2.32-0.215v0c0.798 0.096 1.477 0.297 2.037 0.604 0.559 0.314 0.98 0.69 1.264 1.129 0.277 0.438 0.387 0.893 0.33 1.367v0c-0.037 0.311-0.154 0.568-0.35 0.771-0.195 0.196-0.458 0.274-0.789 0.234v0c-0.353-0.029-0.59-0.167-0.712-0.414-0.127-0.255-0.179-0.478-0.157-0.667v0c0.017-0.142 0.058-0.285 0.124-0.428 0.058-0.144 0.16-0.272 0.303-0.385v0c-0.074-0.352-0.244-0.626-0.508-0.823-0.264-0.203-0.545-0.347-0.844-0.43-0.305-0.085-0.556-0.139-0.752-0.162v0c-0.967-0.116-1.828 0.172-2.583 0.863-0.756 0.698-1.223 1.788-1.4 3.268v0c-0.114 0.953-0.064 1.82 0.151 2.601 0.223 0.774 0.586 1.404 1.09 1.89 0.504 0.486 1.118 0.772 1.842 0.859v0c0.669 0.08 1.333-0.019 1.99-0.297 0.652-0.285 1.181-0.664 1.587-1.137v0l0.497 0.492c-0.437 0.558-0.938 0.988-1.503 1.291-0.565 0.309-1.132 0.516-1.699 0.619-0.569 0.11-1.097 0.136-1.584 0.078z" fill="#ffffff" data-fill-palette-color="secondary"></path><path d="M134.519 279.72v0l-0.551-0.456c0.166-0.197 0.343-0.475 0.53-0.834 0.188-0.366 0.347-0.774 0.477-1.225 0.13-0.444 0.175-0.881 0.134-1.313v0c-0.097 0.036-0.19 0.063-0.28 0.079-0.09 0.023-0.175 0.033-0.257 0.029v0c-0.272-0.013-0.502-0.126-0.689-0.339-0.181-0.206-0.264-0.462-0.25-0.769v0c0.019-0.395 0.152-0.695 0.4-0.901 0.242-0.207 0.522-0.303 0.842-0.288v0c0.497 0.023 0.865 0.232 1.106 0.625 0.24 0.393 0.348 0.862 0.322 1.406v0c-0.017 0.361-0.106 0.793-0.266 1.297-0.161 0.511-0.372 1.008-0.633 1.493-0.254 0.479-0.549 0.877-0.885 1.196z" fill="#ffffff" data-fill-palette-color="secondary"></path><path d="M158.589 274.702l-10.619 0.98-0.065-0.702c0.539-0.084 0.897-0.243 1.074-0.479 0.183-0.243 0.266-0.561 0.25-0.957-0.016-0.395-0.047-0.84-0.092-1.335v0l-0.854-9.256c-0.026-0.285-0.045-0.56-0.056-0.826-0.011-0.266-0.019-0.504-0.025-0.716v0c-0.256 0.037-0.509 0.074-0.759 0.111-0.256 0.037-0.513 0.075-0.769 0.112v0l-0.087-0.946 4.811-0.444 0.066 0.712c-0.521 0.062-0.876 0.218-1.065 0.468-0.183 0.243-0.27 0.558-0.261 0.947 0.015 0.388 0.047 0.84 0.094 1.356v0l0.847 9.185c0.036 0.387 0.063 0.716 0.081 0.988 0.018 0.272 0.022 0.501 0.012 0.686v0l4.002-0.431c0.894-0.096 1.549-0.444 1.966-1.043 0.409-0.605 0.556-1.535 0.44-2.79v0l0.732-0.067z" fill="#ffffff" data-fill-palette-color="secondary"></path><path d="M161.909 274.135l-0.113-0.634c0.436-0.077 0.718-0.241 0.847-0.492 0.13-0.244 0.177-0.564 0.141-0.959-0.042-0.394-0.108-0.845-0.198-1.355v0l-0.854-4.828c-0.04-0.228-0.072-0.444-0.094-0.647-0.023-0.21-0.047-0.459-0.07-0.745v0c-0.252 0.059-0.498 0.116-0.737 0.172-0.246 0.057-0.494 0.119-0.746 0.183v0l-0.158-0.895c0.617-0.109 1.092-0.221 1.424-0.335 0.325-0.12 0.57-0.236 0.737-0.348 0.159-0.118 0.28-0.236 0.363-0.355v0l0.614-0.108 1.515 8.56c0.05 0.282 0.091 0.534 0.123 0.756 0.031 0.216 0.045 0.449 0.041 0.698v0c0.226-0.054 0.449-0.104 0.668-0.149 0.213-0.045 0.433-0.094 0.659-0.148v0l0.153 0.865zM161.678 260.876v0c-0.295 0.052-0.578-0.022-0.848-0.223-0.271-0.201-0.437-0.476-0.499-0.825v0c-0.063-0.355 0.001-0.678 0.192-0.967 0.191-0.29 0.434-0.461 0.729-0.513v0c0.322-0.057 0.615 0.019 0.88 0.228 0.265 0.209 0.429 0.491 0.492 0.846v0c0.062 0.349-0.003 0.665-0.195 0.948-0.192 0.283-0.442 0.452-0.751 0.506z" fill="#ffffff" data-fill-palette-color="secondary"></path><path d="M174.422 271.392l-0.83 0.217-4.753-5.997c-0.362-0.468-0.655-0.874-0.88-1.216-0.224-0.343-0.392-0.633-0.503-0.871-0.117-0.23-0.202-0.422-0.257-0.577v0l-0.871 0.303-0.226-0.859 3.824-1.004 0.166 0.632c-0.415 0.109-0.654 0.284-0.717 0.526-0.061 0.248-0.004 0.536 0.173 0.863 0.172 0.335 0.397 0.681 0.674 1.037v0l2.563 3.246c0.174 0.208 0.344 0.424 0.509 0.648 0.173 0.229 0.346 0.472 0.519 0.73v0l0.019-0.006c0.011-0.228 0.031-0.473 0.061-0.734 0.03-0.261 0.049-0.509 0.058-0.744v0l0.474-4.993c0.024-0.365 0.065-0.69 0.125-0.973 0.059-0.283 0.099-0.494 0.118-0.633v0l-1.315 0.419-0.226-0.859 3.29-0.864 0.166 0.632c-0.303 0.08-0.533 0.249-0.69 0.509-0.155 0.266-0.271 0.631-0.346 1.094-0.075 0.463-0.156 1.041-0.242 1.733v0z" fill="#ffffff" data-fill-palette-color="secondary"></path><path d="M186.798 267.758v0c-0.928 0.337-1.847 0.421-2.756 0.252-0.907-0.163-1.72-0.567-2.44-1.212-0.728-0.648-1.29-1.517-1.686-2.604v0c-0.344-0.947-0.451-1.909-0.319-2.884 0.125-0.973 0.479-1.852 1.064-2.636 0.584-0.785 1.382-1.361 2.393-1.728v0c0.563-0.205 1.124-0.307 1.682-0.307 0.56 0.007 1.096 0.124 1.606 0.351 0.513 0.234 0.98 0.593 1.402 1.078 0.414 0.48 0.758 1.098 1.032 1.853v0l-7.069 2.709c0.372 1.024 0.811 1.883 1.316 2.576 0.505 0.693 1.084 1.16 1.737 1.401 0.653 0.241 1.37 0.22 2.151-0.064v0c0.416-0.151 0.815-0.379 1.196-0.684 0.388-0.308 0.725-0.658 1.01-1.052 0.285-0.393 0.483-0.784 0.595-1.172v0l0.636 0.225c-0.16 0.696-0.435 1.306-0.823 1.832-0.391 0.519-0.828 0.953-1.31 1.301-0.484 0.343-0.957 0.598-1.417 0.765zM181.464 261.751v0l5.146-1.869c-0.177-0.486-0.417-0.928-0.721-1.325-0.306-0.403-0.671-0.691-1.096-0.863-0.431-0.169-0.909-0.159-1.434 0.032v0c-0.781 0.284-1.347 0.75-1.697 1.399-0.349 0.656-0.415 1.531-0.198 2.626z" fill="#ffffff" data-fill-palette-color="secondary"></path><path d="M205.54 258.542l-4.188 2.41-0.351-0.611c0.455-0.301 0.714-0.596 0.776-0.883 0.065-0.297 0.008-0.621-0.171-0.974-0.179-0.353-0.393-0.744-0.641-1.175v0l-4.636-8.058c-0.143-0.248-0.274-0.49-0.395-0.727-0.121-0.237-0.228-0.45-0.321-0.64v0c-0.218 0.141-0.432 0.28-0.644 0.417-0.218 0.141-0.435 0.282-0.652 0.423v0l-0.474-0.823 4.188-2.41 0.357 0.62c-0.448 0.273-0.705 0.563-0.773 0.869-0.065 0.297-0.013 0.62 0.157 0.97 0.176 0.347 0.393 0.744 0.651 1.193v0l1.778 3.09 6.676-3.841-2.251-3.914c-0.143-0.248-0.274-0.49-0.395-0.727-0.121-0.237-0.228-0.45-0.322-0.641v0c-0.218 0.141-0.435 0.282-0.652 0.423-0.212 0.137-0.426 0.277-0.644 0.417v0l-0.474-0.823 4.188-2.41 0.357 0.62c-0.454 0.277-0.711 0.566-0.773 0.869-0.071 0.3-0.018 0.623 0.158 0.97 0.176 0.347 0.393 0.744 0.651 1.193v0l4.554 7.916c0.194 0.336 0.357 0.627 0.491 0.873 0.133 0.245 0.236 0.458 0.307 0.636v0c0.218-0.141 0.435-0.282 0.652-0.423 0.208-0.143 0.421-0.285 0.639-0.426v0l0.474 0.824-4.188 2.409-0.352-0.611c0.455-0.301 0.714-0.596 0.777-0.883 0.065-0.297 0.008-0.621-0.172-0.973-0.179-0.353-0.393-0.744-0.64-1.176v0l-1.957-3.4-6.63 3.921 2.303 4.002c0.194 0.336 0.357 0.627 0.49 0.873 0.133 0.245 0.236 0.458 0.307 0.637v0c0.218-0.141 0.435-0.282 0.653-0.423 0.214-0.147 0.427-0.289 0.638-0.426v0z" fill="#ffffff" data-fill-palette-color="secondary"></path><path d="M224.775 245.657l-2.458 1.847c-0.185-0.167-0.339-0.321-0.46-0.46-0.125-0.144-0.258-0.287-0.399-0.429v0c-0.098 0.687-0.289 1.311-0.573 1.874-0.284 0.563-0.68 1.034-1.186 1.415v0c-0.871 0.654-1.669 0.942-2.392 0.863-0.718-0.083-1.291-0.41-1.721-0.982v0c-0.397-0.528-0.575-1.106-0.534-1.732 0.036-0.632 0.221-1.265 0.555-1.898 0.339-0.638 0.771-1.247 1.296-1.829 0.52-0.578 1.073-1.078 1.658-1.501v0l-0.804-1.07c-0.303-0.403-0.622-0.755-0.958-1.056-0.337-0.301-0.705-0.48-1.106-0.536-0.4-0.057-0.855 0.097-1.364 0.462v0c-0.344 0.233-0.641 0.553-0.889 0.961-0.246 0.398-0.324 0.822-0.232 1.273v0c0.157 0.027 0.296 0.088 0.419 0.183 0.117 0.099 0.215 0.201 0.292 0.305v0c0.102 0.136 0.164 0.337 0.185 0.602 0.021 0.266-0.12 0.499-0.421 0.699v0c-0.24 0.18-0.483 0.235-0.731 0.166-0.252-0.075-0.464-0.227-0.636-0.455v0c-0.29-0.387-0.408-0.844-0.352-1.371 0.061-0.531 0.281-1.084 0.659-1.657 0.382-0.568 0.9-1.098 1.554-1.588v0c0.958-0.72 1.859-1 2.702-0.842 0.842 0.168 1.67 0.807 2.486 1.915v0c0.319 0.425 0.64 0.852 0.963 1.283 0.323 0.43 0.643 0.862 0.961 1.297 0.318 0.434 0.64 0.869 0.967 1.305v0c0.139 0.185 0.271 0.372 0.394 0.559 0.123 0.197 0.259 0.419 0.409 0.664v0c0.199-0.166 0.395-0.331 0.589-0.493 0.193-0.162 0.389-0.326 0.588-0.492v0zM218.996 243.405v0c-0.384 0.305-0.758 0.663-1.123 1.073-0.365 0.41-0.664 0.835-0.896 1.274-0.229 0.444-0.348 0.892-0.359 1.342-0.02 0.449 0.129 0.87 0.449 1.261v0c0.341 0.408 0.719 0.623 1.134 0.642 0.421 0.016 0.808-0.109 1.162-0.374v0c0.468-0.352 0.809-0.748 1.023-1.19 0.219-0.446 0.379-0.958 0.481-1.536v0c-0.105-0.117-0.213-0.249-0.323-0.397-0.11-0.147-0.227-0.302-0.349-0.465v0c-0.041-0.054-0.175-0.239-0.403-0.554-0.228-0.315-0.493-0.673-0.796-1.076z" fill="#ffffff" data-fill-palette-color="secondary"></path><path d="M227.317 243.45l-0.432-0.477c0.328-0.297 0.48-0.586 0.455-0.867-0.02-0.276-0.15-0.572-0.389-0.887-0.245-0.311-0.541-0.658-0.889-1.042v0l-3.29-3.635c-0.155-0.172-0.306-0.343-0.452-0.515-0.15-0.176-0.293-0.369-0.427-0.578v0c-0.183 0.184-0.363 0.36-0.54 0.53-0.182 0.174-0.365 0.353-0.547 0.537v0l-0.59-0.651 0.492-0.446c0.459-0.416 0.734-0.747 0.824-0.993 0.094-0.251 0.152-0.482 0.171-0.693v0l0.462-0.418c0.176 0.153 0.383 0.347 0.622 0.58 0.239 0.243 0.537 0.552 0.894 0.927v0c-0.086-0.409-0.104-0.866-0.054-1.369 0.045-0.509 0.161-1.005 0.348-1.487 0.198-0.482 0.486-0.894 0.865-1.237v0c0.298-0.27 0.631-0.429 1-0.479 0.368-0.04 0.71 0.115 1.025 0.464v0c0.078 0.086 0.144 0.214 0.198 0.385 0.064 0.172 0.076 0.353 0.038 0.545-0.039 0.201-0.152 0.385-0.338 0.554v0c-0.246 0.205-0.515 0.283-0.808 0.235-0.296-0.053-0.537-0.212-0.721-0.477v0c-0.277 0.232-0.488 0.552-0.633 0.959-0.145 0.398-0.223 0.84-0.233 1.327-0.009 0.477 0.05 0.979 0.179 1.506v0l3.566 3.909c0.192 0.212 0.361 0.404 0.507 0.575 0.141 0.166 0.279 0.354 0.413 0.563v0c0.157-0.161 0.317-0.319 0.479-0.476 0.162-0.156 0.322-0.314 0.479-0.475v0l0.59 0.651z" fill="#ffffff" data-fill-palette-color="secondary"></path><path d="M238.427 232.35l-2.874 3.309-0.485-0.422c0.29-0.334 0.406-0.639 0.348-0.916-0.053-0.271-0.217-0.55-0.493-0.834-0.28-0.28-0.616-0.589-1.007-0.928v0l-3.701-3.216c-0.175-0.152-0.345-0.304-0.51-0.457-0.17-0.157-0.335-0.331-0.493-0.522v0c-0.159 0.204-0.314 0.403-0.465 0.597-0.155 0.199-0.31 0.403-0.464 0.612v0l-0.686-0.596c0.411-0.473 0.703-0.851 0.876-1.134 0.164-0.282 0.266-0.509 0.307-0.68 0.036-0.176 0.049-0.337 0.038-0.481v0l0.409-0.47c0.126 0.073 0.265 0.167 0.418 0.282 0.143 0.115 0.312 0.248 0.506 0.399v0c-0.001-0.57 0.091-1.143 0.277-1.721 0.191-0.573 0.47-1.071 0.837-1.493v0c0.469-0.54 0.962-0.91 1.479-1.11 0.512-0.205 1.027-0.263 1.544-0.174v0c0.014-0.629 0.125-1.276 0.334-1.942 0.209-0.666 0.514-1.231 0.917-1.694v0c0.817-0.941 1.703-1.389 2.657-1.345 0.955 0.054 2.066 0.649 3.333 1.786v0l3.01 2.641c0.216 0.188 0.404 0.36 0.565 0.518 0.16 0.148 0.319 0.318 0.477 0.51v0c0.142-0.184 0.281-0.36 0.419-0.53 0.142-0.174 0.284-0.353 0.426-0.536v0l0.663 0.576-2.88 3.316-0.486-0.422c0.295-0.339 0.413-0.647 0.355-0.923-0.053-0.271-0.219-0.547-0.5-0.827-0.28-0.28-0.616-0.589-1.006-0.928v0l-2.275-1.976c-0.931-0.808-1.754-1.267-2.472-1.376-0.727-0.108-1.364 0.163-1.912 0.815v0c-0.29 0.334-0.503 0.735-0.64 1.203-0.141 0.464-0.208 0.92-0.201 1.369v0c0.224 0.095 0.447 0.217 0.67 0.365 0.223 0.148 0.442 0.317 0.659 0.504v0c0.618 0.555 1.246 1.11 1.883 1.664 0.643 0.558 1.278 1.119 1.907 1.683v0c0.216 0.188 0.406 0.358 0.572 0.51 0.16 0.148 0.319 0.318 0.477 0.51v0c0.137-0.179 0.277-0.355 0.419-0.529 0.142-0.174 0.282-0.35 0.419-0.529v0l0.664 0.576-2.874 3.308-0.486-0.422c0.29-0.334 0.404-0.637 0.342-0.907-0.053-0.271-0.217-0.55-0.494-0.835-0.276-0.285-0.609-0.597-0.999-0.936v0l-2.262-1.991c-0.922-0.819-1.74-1.295-2.454-1.428-0.724-0.133-1.357 0.124-1.901 0.77v0c-0.295 0.339-0.511 0.733-0.648 1.183-0.132 0.453-0.184 0.891-0.154 1.314v0c0.129 0.112 0.27 0.23 0.423 0.354 0.148 0.12 0.305 0.251 0.47 0.394v0l4.172 3.625c0.216 0.188 0.406 0.358 0.572 0.51 0.16 0.148 0.317 0.32 0.47 0.517v0c0.142-0.184 0.283-0.363 0.426-0.537 0.138-0.169 0.277-0.345 0.419-0.529v0z" fill="#ffffff" data-fill-palette-color="secondary"></path><path d="M252.439 215.051v0c-0.554 0.842-1.252 1.475-2.094 1.9-0.836 0.428-1.729 0.615-2.679 0.56-0.954-0.049-1.875-0.365-2.763-0.949v0c-0.944-0.621-1.664-1.38-2.158-2.276-0.498-0.89-0.739-1.819-0.723-2.787 0.011-0.971 0.297-1.883 0.859-2.736v0c0.55-0.836 1.249-1.465 2.097-1.886 0.853-0.417 1.756-0.606 2.708-0.566 0.948 0.045 1.858 0.354 2.728 0.927v0c0.927 0.61 1.638 1.363 2.133 2.26 0.497 0.906 0.742 1.846 0.737 2.82-0.005 0.975-0.287 1.886-0.845 2.733zM251.809 214.429v0c0.415-0.631 0.566-1.25 0.451-1.856-0.111-0.611-0.402-1.186-0.872-1.723-0.466-0.543-1.018-1.024-1.655-1.443v0c-0.535-0.352-1.098-0.649-1.688-0.891-0.585-0.238-1.162-0.39-1.731-0.454-0.569-0.065-1.091-0.009-1.566 0.168-0.475 0.177-0.87 0.504-1.184 0.982v0c-0.412 0.626-0.568 1.253-0.467 1.881 0.096 0.634 0.372 1.231 0.826 1.791 0.451 0.566 1.007 1.066 1.667 1.501v0c0.74 0.487 1.51 0.847 2.31 1.079 0.8 0.233 1.548 0.281 2.242 0.142 0.692-0.148 1.248-0.54 1.667-1.177z" fill="#ffffff" data-fill-palette-color="secondary"></path><path d="M258.946 203.078l-1.986 3.906-0.574-0.292c0.201-0.395 0.239-0.719 0.116-0.972-0.117-0.251-0.344-0.48-0.68-0.69-0.34-0.203-0.74-0.422-1.202-0.656v0l-4.362-2.241c-0.206-0.105-0.408-0.211-0.605-0.319-0.203-0.111-0.405-0.24-0.605-0.388v0c-0.105 0.237-0.207 0.468-0.306 0.692-0.102 0.231-0.203 0.466-0.302 0.707v0l-0.81-0.412c0.287-0.565 0.479-1.002 0.575-1.312 0.09-0.313 0.135-0.558 0.133-0.735-0.005-0.186-0.031-0.344-0.079-0.476v0l0.282-0.555c0.097 0.034 0.207 0.074 0.328 0.121 0.118 0.053 0.251 0.108 0.397 0.167 0.146 0.059 0.31 0.135 0.491 0.227v0c-0.101-0.403-0.162-0.823-0.183-1.262-0.015-0.436 0.015-0.871 0.091-1.306 0.076-0.435 0.208-0.838 0.396-1.208v0c0.565-1.111 1.323-1.745 2.275-1.903 0.96-0.161 2.175 0.132 3.644 0.878v0l3.569 1.815c0.255 0.13 0.48 0.251 0.674 0.365 0.191 0.105 0.387 0.231 0.587 0.379v0c0.093-0.213 0.186-0.418 0.278-0.615 0.096-0.203 0.19-0.411 0.283-0.624v0l0.783 0.398-1.991 3.916-0.573-0.292c0.204-0.401 0.244-0.728 0.121-0.981-0.117-0.251-0.346-0.477-0.686-0.681-0.34-0.203-0.74-0.422-1.201-0.657v0l-2.687-1.366c-1.105-0.546-2.026-0.786-2.763-0.717-0.74 0.059-1.298 0.471-1.672 1.236v0c-0.219 0.461-0.326 0.972-0.321 1.533 0.005 0.56 0.113 1.077 0.324 1.551v0c0.109 0.04 0.228 0.093 0.355 0.157 0.127 0.065 0.261 0.133 0.401 0.204v0l4.88 2.504c0.255 0.13 0.481 0.248 0.679 0.357 0.191 0.105 0.385 0.234 0.582 0.387v0c0.093-0.213 0.187-0.421 0.283-0.624 0.093-0.197 0.185-0.402 0.278-0.615v0z" fill="#ffffff" data-fill-palette-color="secondary"></path><path d="M269.485 194.113v0c-0.159 0.421-0.395 0.739-0.709 0.955-0.315 0.216-0.679 0.246-1.093 0.09v0c-0.242-0.091-0.432-0.254-0.57-0.488-0.144-0.236-0.168-0.482-0.071-0.736v0c0.11-0.33 0.295-0.511 0.555-0.544 0.254-0.035 0.463-0.022 0.629 0.04v0c0.038 0.014 0.08 0.03 0.124 0.047 0.051 0.019 0.1 0.045 0.146 0.077v0c0.04-0.029 0.08-0.097 0.121-0.205v0c0.06-0.159 0.058-0.357-0.006-0.592-0.062-0.242-0.192-0.484-0.392-0.727v0c-0.228-0.283-0.594-0.654-1.098-1.113-0.497-0.457-1.101-0.987-1.812-1.59v0l-7.902 0.599c-0.884 0.067-1.575 0.093-2.072 0.08-0.504-0.015-0.875-0.035-1.113-0.06v0l-0.317 0.984-0.831-0.314 1.572-4.167 0.612 0.231-0.029 0.076c-0.176 0.581-0.082 0.97 0.281 1.165 0.363 0.195 1.001 0.261 1.913 0.198v0l5.937-0.456c-0.738-0.628-1.475-1.241-2.21-1.839-0.733-0.604-1.46-1.203-2.183-1.795v0c-0.252-0.219-0.517-0.443-0.795-0.672-0.269-0.233-0.506-0.453-0.711-0.661-0.205-0.208-0.325-0.374-0.359-0.496v0l-0.437 1.418-0.832-0.313 1.191-3.154 0.611 0.231c-0.003 0.567 0.166 1.056 0.505 1.468 0.346 0.414 0.812 0.878 1.397 1.39v0l6.076 5.164c0.976 0.827 1.792 1.557 2.449 2.191 0.659 0.627 1.116 1.218 1.372 1.774 0.26 0.564 0.277 1.146 0.051 1.744z" fill="#ffffff" data-fill-palette-color="secondary"></path><path d="M268.509 180.597v0c-0.099 0.319-0.312 0.556-0.639 0.711-0.328 0.162-0.678 0.185-1.048 0.07v0c-0.371-0.115-0.648-0.337-0.831-0.665-0.183-0.328-0.226-0.648-0.129-0.961v0c0.107-0.345 0.325-0.587 0.654-0.727 0.331-0.147 0.682-0.162 1.052-0.047v0c0.371 0.115 0.644 0.336 0.821 0.662 0.177 0.326 0.216 0.645 0.12 0.957z" fill="#ffffff" data-fill-palette-color="secondary"></path></g></svg></g></svg></g></svg></g></svg></g><defs></defs></svg><rect width="279.72" height="279.72" fill="none" stroke="none" visibility="hidden"></rect></g></svg></g></svg>